<svg width="681" height="303" viewBox="0 0 681 303" fill="none" xmlns="http://www.w3.org/2000/svg">
<path d="M389.247 107.996C399.163 104.477 409.016 106.74 411.255 113.051C413.493 119.361 407.27 127.328 397.351 130.847C393.408 132.308 389.172 132.802 384.999 132.29L342.798 146.671L336.472 126.724L378.746 114.664C381.663 111.635 385.264 109.348 389.247 107.996H389.247Z" fill="#FFB6B6"/>
<path d="M373.896 137.862L290.608 176.5L290.399 176.597L222.679 135.247C216.425 131.428 212.624 124.774 212.511 117.446C212.399 110.118 215.994 103.35 222.129 99.3409C229.815 94.3191 239.803 94.7888 246.983 100.51L296.916 140.297L367.682 114.314L373.896 137.862L373.896 137.862Z" fill="#E6E6E6"/>
<path d="M0 268.28C0 268.85 0.457458 269.307 1.02712 269.307H679.658C680.227 269.307 680.685 268.85 680.685 268.28C680.685 267.71 680.227 267.253 679.658 267.253H1.02712C0.457458 267.253 0 267.71 0 268.28Z" fill="#3F3D56"/>
<path d="M266.737 107.832L272.318 72.9488L234.644 57.6003L229.063 110.622L266.737 107.832Z" fill="#FFB6B6"/>
<path d="M257.216 84.1624C278.434 84.1624 295.634 66.9621 295.634 45.7444C295.634 24.5268 278.434 7.32652 257.216 7.32652C235.999 7.32652 218.798 24.5268 218.798 45.7444C218.798 66.9621 235.999 84.1624 257.216 84.1624Z" fill="#FFB6B6"/>
<path d="M219.082 295.937C221.593 297.042 224.277 298.095 227.16 299.096C270.202 314.019 320.105 281.238 348.725 257.607C363.147 245.689 372.158 236.091 372.158 236.091L400.397 250.211L419.204 259.61H419.213L422.863 261.448C422.872 261.448 422.881 261.457 422.881 261.457L434.006 267.015L451.216 275.62L453.287 276.656L454.702 277.071L480.042 284.424L485.221 266.299C485.221 266.299 483.452 264.719 480.353 261.983C461.486 245.361 393.398 186.162 375.61 181.717C367.54 179.698 350.322 186.317 332.292 195.155C304.017 209.016 273.766 228.323 273.766 228.323L261.683 211.062L220.083 220.452L204.297 224.016L194.795 226.166C194.795 226.166 165.243 272.263 219.082 295.937H219.082H219.082Z" fill="#2F2E41"/>
<path d="M478.316 263.71C478.316 263.71 484.358 257.668 487.81 260.257C491.262 262.847 494.715 266.299 494.715 266.299C494.715 266.299 521.47 268.025 522.333 280.971C523.196 293.917 504.209 298.233 504.209 298.233C504.209 298.233 442.067 303.411 442.067 294.78C442.067 286.15 451.217 275.621 451.217 275.621C451.217 275.621 480.905 270.614 478.316 263.71Z" fill="#2F2E41"/>
<path d="M219.082 295.937C265.515 278.874 305.7 236.091 305.7 236.091L348.725 257.607L384.758 275.62L386.83 276.656L413.585 284.424L418.764 266.299C418.764 266.299 416.995 264.719 413.896 261.984C410.668 259.144 405.999 255.053 400.397 250.211C381.979 234.296 353.394 210.19 332.292 195.156C304.017 209.016 273.766 228.323 273.766 228.323L261.683 211.062L220.083 220.452C212.281 225.148 207.309 228.323 207.309 228.323L204.297 224.016L194.795 226.166C194.795 226.166 165.243 272.263 219.082 295.937H219.082Z" fill="#2F2E41"/>
<path d="M411.859 263.71C411.859 263.71 417.901 257.668 421.353 260.257C424.805 262.847 428.258 266.299 428.258 266.299C428.258 266.299 455.013 268.025 455.876 280.971C456.739 293.917 437.752 298.233 437.752 298.233C437.752 298.233 375.61 303.411 375.61 294.781C375.61 286.15 384.76 275.621 384.76 275.621C384.76 275.621 414.448 270.614 411.859 263.71H411.859Z" fill="#2F2E41"/>
<path d="M199.253 159.866C201.117 134.605 211.372 110.233 228.131 91.2396L228.296 91.0533L271.938 99.7819L281.488 127.998C287.573 145.979 286.124 165.992 277.513 182.907L266.881 203.791L270.395 223.122L194.815 226.596L194.329 226.619L199.253 159.866H199.253H199.253Z" fill="#E6E6E6"/>
<path d="M372.826 174.467L372.123 97.1207C372.086 93.0188 374.847 89.4905 378.837 88.5405L398.08 83.959C399.968 83.5093 401.926 83.9402 403.451 85.1415C404.976 86.3425 405.853 88.1447 405.859 90.0858L406.089 172.915C406.093 174.313 405.551 175.629 404.563 176.62C403.575 177.611 402.261 178.156 400.862 178.156H376.549C374.515 178.156 372.845 176.501 372.827 174.467H372.826Z" fill="#2F2E41"/>
<path d="M379.849 90.1678L381.687 89.7265V92.5064C381.687 93.3951 382.498 94.0506 383.344 93.8448L390.764 92.0379C391.846 91.7745 392.609 90.7863 392.609 89.6493V87.103L396.163 86.2494C398.67 85.6471 401.075 87.5842 401.09 90.2187L401.547 170.547C401.566 173.863 398.943 176.561 395.701 176.561H377.349C375.347 176.561 373.718 174.911 373.698 172.863L372.992 99.1076C372.952 94.8542 375.8 91.1404 379.849 90.1679L379.849 90.1678Z" fill="#6C63FF"/>
<path d="M405.683 142.724C415.998 140.649 425.43 144.29 426.749 150.855C428.068 157.419 420.776 164.421 410.457 166.495C406.347 167.38 402.084 167.268 398.026 166.168L354.21 174.406L350.782 153.762L394.341 147.832C397.659 145.248 401.549 143.496 405.683 142.724H405.683Z" fill="#FFB6B6"/>
<path d="M236.933 146.028C231.285 141.359 228.468 134.232 229.398 126.963C230.328 119.694 234.849 113.505 241.491 110.409C249.812 106.529 259.631 108.414 265.926 115.097L309.699 161.576L382.974 146.012L383.438 145.913L386.244 170.105L298.089 196.582L236.933 146.028Z" fill="#E6E6E6"/>
<path d="M279.569 9.77384C286.693 15.1835 291.704 23.025 292.965 31.8807C293.893 38.396 293.013 46.1059 287.144 53.2168C279.429 62.5645 278.179 79.8902 278.579 93.3617C278.826 101.674 271.613 108.274 263.353 107.304C245.729 105.233 237.067 148.497 224.139 154.53C209.259 161.474 196.521 154.53 196.521 154.53C196.521 154.53 200.836 106.198 210.33 92.3884C216.296 83.7106 217.128 52.2025 218.205 39.6058C219.358 26.1213 226.44 13.6966 237.841 6.40414C248.293 -0.281814 262.609 -3.10458 279.569 9.77386V9.77384Z" fill="#2F2E41"/>
</svg>
